PathFileType	4	(X/Y/Z)	output.trc
DataRate	CameraRate	NumFrames	NumMarkers	Units	OrigDataRate	OrigDataStartFrame	OrigNumFrames
100	100	13	23	m	100	1	4710
Frame#	Time	C7			T8			EL			EM			US			RS			AA			Fore_Clus_1			Fore_Clus_2			Fore_Clus_3			Fore_Clus_4			Hum_Clus_1			Hum_Clus_2			Hum_Clus_3			Hum_Clus_4			Thor_Clus_1			Thor_Clus_2			Thor_Clus_3			Thor_Clus_4			IJ			PX			GH			Thor_Clus_5		
		X1	Y1	Z1	X2	Y2	Z2	X3	Y3	Z3	X4	Y4	Z4	X5	Y5	Z5	X6	Y6	Z6	X7	Y7	Z7	X8	Y8	Z8	X9	Y9	Z9	X10	Y10	Z10	X11	Y11	Z11	X12	Y12	Z12	X13	Y13	Z13	X14	Y14	Z14	X15	Y15	Z15	X16	Y16	Z16	X17	Y17	Z17	X18	Y18	Z18	X19	Y19	Z19	X20	Y20	Z20	X21	Y21	Z21	X22	Y22	Z22	X23	Y23	Z23
0	0.000000	-0.130056	1.416283	-0.144301	-0.167186	1.204303	-0.207280	-0.293767	1.058793	0.018518	-0.274053	1.045922	-0.041337	-0.246842	0.818432	0.049333	-0.203054	0.832045	0.072195	-0.246805	1.335952	-0.016008	-0.276193	0.862851	0.071665	-0.261950	0.811023	0.081710	-0.239902	0.820073	0.096427	-0.240731	0.877570	0.095358	-0.261255	1.143302	0.061276	-0.308994	1.160661	0.028475	-0.302215	1.223816	0.032373	-0.250118	1.216736	0.058378	-0.003772	1.295877	-0.043563	-0.037239	1.244103	0.014345	-0.039156	1.293176	-0.016391	0.013486	1.247535	-0.025469	-0.064409	1.325825	-0.076892	-0.038026	1.126807	-0.042812	-0.221485	1.315700	-0.033582	-0.045164	1.265311	0.006066
1	0.010000	-0.130070	1.416179	-0.144576	-0.167067	1.204139	-0.207432	-0.293384	1.058668	0.018349	-0.273678	1.045815	-0.041512	-0.246649	0.818333	0.049244	-0.202825	0.831913	0.072057	-0.246688	1.335818	-0.016182	-0.275908	0.862905	0.071590	-0.261708	0.811055	0.081608	-0.239648	0.820076	0.096283	-0.240363	0.877548	0.095145	-0.260883	1.143288	0.061098	-0.308636	1.160604	0.028346	-0.301951	1.223765	0.032286	-0.249819	1.216707	0.058237	-0.003528	1.296078	-0.043786	-0.037055	1.244228	0.014064	-0.038982	1.293231	-0.016668	0.013655	1.247638	-0.025731	-0.064315	1.325805	-0.077158	-0.037758	1.126824	-0.042996	-0.221366	1.315643	-0.033780	-0.044921	1.265380	0.005786
2	0.020000	-0.130081	1.416081	-0.144871	-0.166961	1.203973	-0.207564	-0.293078	1.058606	0.018169	-0.273363	1.045764	-0.041692	-0.246506	0.818285	0.049121	-0.202651	0.831833	0.071894	-0.246584	1.335730	-0.016367	-0.275714	0.862972	0.071461	-0.261541	0.811124	0.081476	-0.239433	0.820096	0.096103	-0.240053	0.877529	0.094940	-0.260602	1.143312	0.060945	-0.308397	1.160607	0.028245	-0.301730	1.223786	0.032169	-0.249597	1.216737	0.058112	-0.003388	1.296220	-0.044047	-0.036875	1.244356	0.013838	-0.038865	1.293340	-0.016929	0.013823	1.247785	-0.025998	-0.064233	1.325800	-0.077421	-0.037523	1.126861	-0.043133	-0.221257	1.315632	-0.033980	-0.044804	1.265609	0.005582
3	0.030000	-0.130095	1.415980	-0.145182	-0.166875	1.203793	-0.207666	-0.292855	1.058599	0.017985	-0.273117	1.045760	-0.041869	-0.246429	0.818274	0.048977	-0.202548	0.831792	0.071717	-0.246496	1.335677	-0.016557	-0.275560	0.863037	0.071298	-0.261411	0.811201	0.081317	-0.239290	0.820145	0.095912	-0.239873	0.877563	0.094726	-0.260384	1.143384	0.060750	-0.308228	1.160650	0.028125	-0.301577	1.223843	0.032041	-0.249445	1.216820	0.057985	-0.003333	1.296322	-0.044323	-0.036726	1.244499	0.013624	-0.038749	1.293449	-0.017173	0.013954	1.247929	-0.026253	-0.064165	1.325799	-0.077678	-0.037323	1.126908	-0.043220	-0.221161	1.315658	-0.034180	-0.044659	1.265747	0.005338
4	0.040000	-0.130101	1.415882	-0.145502	-0.166801	1.203612	-0.207752	-0.292721	1.058640	0.017797	-0.272943	1.045794	-0.042042	-0.246413	0.818299	0.048810	-0.202513	0.831788	0.071530	-0.246425	1.335659	-0.016756	-0.275510	0.863079	0.071131	-0.261395	0.811263	0.081154	-0.239251	0.820195	0.095741	-0.239788	0.877587	0.094498	-0.260277	1.143477	0.060578	-0.308134	1.160701	0.027962	-0.301493	1.223916	0.031869	-0.249364	1.216943	0.057819	-0.003456	1.296291	-0.044687	-0.036655	1.244644	0.013434	-0.038664	1.293551	-0.017398	0.014085	1.248056	-0.026472	-0.064108	1.325803	-0.077923	-0.037162	1.126960	-0.043265	-0.221078	1.315710	-0.034382	-0.044525	1.265843	0.005033
5	0.050000	-0.130102	1.415782	-0.145824	-0.166741	1.203427	-0.207819	-0.292675	1.058718	0.017609	-0.272843	1.045855	-0.042209	-0.246465	0.818346	0.048630	-0.202553	0.831810	0.071343	-0.246371	1.335669	-0.016961	-0.275523	0.863140	0.070953	-0.261427	0.811346	0.080961	-0.239284	0.820233	0.095560	-0.239796	0.877656	0.094289	-0.260257	1.143603	0.060422	-0.308099	1.160770	0.027755	-0.301449	1.224011	0.031619	-0.249373	1.217055	0.057642	-0.003770	1.296129	-0.045083	-0.036543	1.244895	0.013270	-0.038594	1.293656	-0.017613	0.014166	1.248153	-0.026623	-0.064064	1.325804	-0.078154	-0.037042	1.127011	-0.043270	-0.221009	1.315779	-0.034585	-0.044526	1.266052	0.004887
6	0.060000	-0.130093	1.415681	-0.146143	-0.166691	1.203242	-0.207874	-0.292715	1.058823	0.017421	-0.272815	1.045934	-0.042368	-0.246583	0.818407	0.048443	-0.202669	0.831849	0.071164	-0.246335	1.335700	-0.017173	-0.275645	0.863188	0.070784	-0.261569	0.811406	0.080798	-0.239416	0.820262	0.095424	-0.239898	0.877704	0.094089	-0.260363	1.143720	0.060253	-0.308140	1.160863	0.027513	-0.301500	1.224107	0.031356	-0.249457	1.217151	0.057412	-0.003658	1.296199	-0.045237	-0.036462	1.245005	0.013177	-0.038544	1.293725	-0.017770	0.014218	1.248221	-0.026727	-0.064030	1.325800	-0.078368	-0.036962	1.127057	-0.043242	-0.220955	1.315853	-0.034790	-0.044476	1.266131	0.004767
7	0.070000	-0.130067	1.415585	-0.146452	-0.166642	1.203068	-0.207929	-0.292833	1.058943	0.017232	-0.272852	1.046019	-0.042523	-0.246757	0.818476	0.048249	-0.202852	0.831899	0.070998	-0.246315	1.335751	-0.017396	-0.275822	0.863232	0.070594	-0.261751	0.811446	0.080617	-0.239592	0.820272	0.095252	-0.240082	0.877745	0.093893	-0.260572	1.143817	0.060096	-0.308279	1.160978	0.027228	-0.301615	1.224203	0.031039	-0.249622	1.217250	0.057192	-0.003633	1.296211	-0.045356	-0.036465	1.245079	0.013111	-0.038526	1.293793	-0.017883	0.014234	1.248248	-0.026760	-0.064004	1.325792	-0.078561	-0.036923	1.127093	-0.043192	-0.220916	1.315926	-0.034999	-0.044386	1.266121	0.004645
8	0.080000	-0.130030	1.415489	-0.146746	-0.166596	1.202901	-0.207982	-0.293021	1.059069	0.017041	-0.272948	1.046103	-0.042674	-0.246992	0.818541	0.048059	-0.203105	0.831949	0.070852	-0.246313	1.335811	-0.017625	-0.276118	0.863277	0.070366	-0.262084	0.811480	0.080454	-0.239855	0.820250	0.095137	-0.240374	0.877782	0.093758	-0.260878	1.143918	0.059886	-0.308501	1.161048	0.026897	-0.301798	1.224304	0.030697	-0.249816	1.217317	0.056956	-0.003622	1.296196	-0.045433	-0.036462	1.245128	0.013058	-0.038534	1.293788	-0.017962	0.014242	1.248256	-0.026808	-0.063986	1.325774	-0.078733	-0.036920	1.127117	-0.043123	-0.220894	1.315989	-0.035213	-0.044405	1.266139	0.004561
9	0.090000	-0.129969	1.415405	-0.147021	-0.166539	1.202758	-0.208049	-0.293266	1.059192	0.016843	-0.273091	1.046177	-0.042826	-0.247269	0.818601	0.047869	-0.203411	0.831997	0.070725	-0.246325	1.335882	-0.017870	-0.276389	0.863286	0.070114	-0.262421	0.811513	0.080276	-0.240198	0.820252	0.095011	-0.240783	0.877819	0.093652	-0.261263	1.144020	0.059684	-0.308749	1.161133	0.026532	-0.302030	1.224380	0.030327	-0.250070	1.217403	0.056688	-0.003628	1.296140	-0.045487	-0.036507	1.245163	0.013028	-0.038525	1.293804	-0.018045	0.014220	1.248242	-0.026801	-0.063971	1.325753	-0.078882	-0.036953	1.127128	-0.043048	-0.220888	1.316036	-0.035434	-0.044434	1.266144	0.004505
10	0.100000	-0.129889	1.415332	-0.147273	-0.166471	1.202638	-0.208130	-0.293555	1.059305	0.016637	-0.273270	1.046237	-0.042984	-0.247582	0.818648	0.047684	-0.203764	0.832037	0.070621	-0.246351	1.335957	-0.018128	-0.276700	0.863276	0.069888	-0.262709	0.811471	0.080035	-0.240650	0.820246	0.094880	-0.241216	0.877841	0.093547	-0.261684	1.144096	0.059475	-0.309049	1.161210	0.026160	-0.302329	1.224461	0.029914	-0.250396	1.217454	0.056425	-0.003616	1.296097	-0.045537	-0.036583	1.245146	0.013012	-0.038587	1.293778	-0.018099	0.014190	1.248198	-0.026799	-0.063959	1.325725	-0.079007	-0.037015	1.127127	-0.042973	-0.220897	1.316065	-0.035663	-0.044479	1.266100	0.004454
11	0.110000	-0.129787	1.415272	-0.147501	-0.166387	1.202545	-0.208230	-0.293873	1.059401	0.016419	-0.273471	1.046279	-0.043150	-0.247919	0.818680	0.047506	-0.204151	0.832067	0.070540	-0.246389	1.336034	-0.018399	-0.277048	0.863289	0.069689	-0.263069	0.811410	0.079780	-0.241143	0.820265	0.094715	-0.241688	0.877858	0.093415	-0.262054	1.144154	0.059246	-0.309349	1.161278	0.025778	-0.302605	1.224522	0.029518	-0.250763	1.217508	0.056123	-0.003718	1.296009	-0.045586	-0.036597	1.245172	0.012994	-0.038676	1.293750	-0.018121	0.014143	1.248139	-0.026766	-0.063947	1.325695	-0.079110	-0.037101	1.127115	-0.042903	-0.220921	1.316074	-0.035902	-0.044609	1.266172	0.004457
12	0.120000	-0.129657	1.415235	-0.147703	-0.166277	1.202490	-0.208360	-0.294204	1.059479	0.016183	-0.273681	1.046301	-0.043332	-0.248260	0.818702	0.047328	-0.204553	0.832090	0.070475	-0.246436	1.336113	-0.018688	-0.277549	0.863302	0.069482	-0.263562	0.811399	0.079559	-0.241604	0.820294	0.094578	-0.242107	0.877826	0.093297	-0.262487	1.144202	0.058991	-0.309679	1.161330	0.025403	-0.302856	1.224564	0.029106	-0.251149	1.217540	0.055860	-0.003198	1.296268	-0.045303	-0.036707	1.245110	0.013021	-0.038752	1.293698	-0.018155	0.014069	1.248071	-0.026718	-0.063930	1.325667	-0.079191	-0.037206	1.127096	-0.042848	-0.220958	1.316064	-0.036152	-0.044724	1.266133	0.004448
